<svg viewBox="0 0 25.831600708235147 50" xmlns="http://www.w3.org/2000/svg" xmlns:xlink="http://www.w3.org/1999/xlink" version="1.1" class="jsx-2263963463 artboard-inner" style="width: 11.3659px; height: 22px; max-height: 100%;"><g transform="translate(-14.578470899400482 -3.097176680797518) scale(0.555547690797224)" id="lockup4-icon"><g fill="#232323"><path d="M26.245 66.187c.31-17.097 15.073-13.52 11.966-24.71-9.123-7.259-10.881-17.875-2.798-24.868-.155-7.304 6.684-11.034 6.684-11.034s4.973 4.974 4.507 9.791c4.353-1.399 11.191 3.109 12.279 4.663C61.215 16.143 69.45 16.3 69.45 16.3s2.643 10.412-4.04 14.143c-.933 9.013-7.735 13.508-12.123 13.833-.672 7.703 11.789 11.638 10.477 25.575 8.264 4.051 11.642 10.33 6.618 16.854-7.719 10.021-27.888 10.721-29.996 6.216-2.202-4.705 1.406-8.968 9.605-7.492 7.5 1.35 24.432-3.936 11.642-11.314-3.28 4.755-7.051 7.215-15.339 7.305-12.645.136-20.236-4.83-20.049-15.233z"></path></g></g></svg>