<svg viewBox="-229.33900578168328 -100 573.5086170891038 200" xmlns="http://www.w3.org/2000/svg" xmlns:xlink="http://www.w3.org/1999/xlink" version="1.1" class="jsx-2263963463 artboard-inner" style="width: 143px; height: 49.8685px; max-height: 100%;"><g transform="translate(-1.1778563015312133 48.81743227326267) scale(1.6359115299044626)" fill="#FFFFFF"><g id="line1"><path d="M43.200-2.232L43.200-2.232L43.200-2.232Q39.600-2.376 39.384-6.192L39.384-6.192L39.384-6.192Q39.384-12.816 40.032-27.360L40.032-27.360L40.104-31.752L40.104-31.752Q40.104-38.016 39.096-38.016L39.096-38.016L39.096-38.016Q36.720-38.016 33.696-18.144L33.696-18.144L32.544-10.368L32.544-10.368Q31.824-5.904 28.296-5.904L28.296-5.904L28.296-5.904Q24.264-6.192 24.264-11.016L24.264-11.016L24.264-11.016Q23.544-44.280 21.744-44.280L21.744-44.280L21.744-44.280Q20.736-44.280 19.008-39.600L19.008-39.600L19.008-39.600Q15.264-29.088 14.688-7.848L14.688-7.848L14.688-7.848Q14.472-2.808 10.584-2.448L10.584-2.448L10.584-2.448Q7.488-2.448 6.480-5.328L6.480-5.328L6.480-5.328Q5.760-7.992 5.328-10.728L5.328-10.728L5.328-10.728Q1.512-29.880 0.720-46.872L0.720-46.872L0.720-46.872Q0.720-48.240 1.188-49.572L1.188-49.572L1.188-49.572Q1.656-50.904 2.700-51.588L2.700-51.588L2.700-51.588Q3.744-52.272 4.896-52.272L4.896-52.272L4.896-52.272Q8.208-52.128 8.784-48.528L8.784-48.528L9.936-35.928L9.936-35.928Q13.968-48.312 16.200-51.120L16.200-51.120L16.200-51.120Q18.864-54.144 21.960-54.144L21.960-54.144L21.960-54.144Q25.632-54.072 28.008-50.256L28.008-50.256L28.008-50.256Q29.664-47.232 31.032-41.112L31.032-41.112L31.032-41.112Q32.400-43.776 33.552-45.360L33.552-45.360L33.552-45.360Q36.432-50.184 39.960-50.184L39.960-50.184L39.960-50.184Q43.056-50.184 45.144-47.448L45.144-47.448L45.144-47.448Q47.448-43.776 47.592-39.528L47.592-39.528L47.592-39.528Q47.880-35.424 47.880-30.456L47.880-30.456L47.880-30.456Q47.808-19.224 47.592-8.784L47.592-8.784L47.592-8.784Q47.592-2.232 43.200-2.232Z"></path><path d="M79.704 3.168L79.704 3.168L79.704 3.168Q77.688 3.096 76.608 1.836L76.608 1.836L76.608 1.836Q75.528 0.576 75.456-1.368L75.456-1.368L75.384-7.488L75.384-7.488Q72.288-6.480 69.192-5.616L69.192-5.616L69.192-5.616Q67.320-5.112 65.160-5.112L65.160-5.112L65.160-5.112Q63.360-5.112 61.488-5.544L61.488-5.544L61.488-5.544Q54.216-7.344 54.216-14.112L54.216-14.112L54.216-14.112Q54.216-16.632 55.728-19.224L55.728-19.224L55.728-19.224Q60.408-26.208 71.496-27.000L71.496-27.000L76.464-27.216L76.464-27.216Q76.680-29.664 76.680-32.040L76.680-32.040L76.680-32.040Q76.248-47.808 72.000-47.808L72.000-47.808L72.000-47.808Q70.416-47.808 68.328-45.936L68.328-45.936L68.328-45.936Q61.992-40.464 59.112-32.472L59.112-32.472L59.112-32.472Q57.888-28.296 54.720-28.296L54.720-28.296L54.720-28.296Q54.288-28.296 53.928-28.368L53.928-28.368L53.928-28.368Q50.904-29.304 50.904-32.544L50.904-32.544L50.904-32.544Q50.904-33.696 51.264-34.776L51.264-34.776L51.264-34.776Q54.720-45.072 62.928-52.056L62.928-52.056L62.928-52.056Q67.824-56.016 72.360-56.088L72.360-56.088L72.360-56.088Q77.040-56.088 80.424-51.840L80.424-51.840L80.424-51.840Q84.888-45.432 84.888-32.544L84.888-32.544L84.888-32.544Q84.888-29.952 84.024-9.792L84.024-9.792L84.024-9.792Q83.880-4.248 83.592-0.792L83.592-0.792L83.592-0.792Q83.016 3.024 79.704 3.168ZM64.728-13.320L64.728-13.320L65.592-13.392L65.592-13.392Q71.136-14.040 75.672-15.912L75.672-15.912L75.744-18.576L75.744-18.576Q73.872-18.864 72.864-18.864L72.864-18.864L72.864-18.864Q68.904-18.864 65.304-17.136L65.304-17.136L65.304-17.136Q62.928-15.840 62.928-14.472L62.928-14.472L62.928-14.472Q62.928-13.320 64.728-13.320Z"></path><path d="M106.344-2.736L106.344-2.736L106.344-2.736Q104.904-2.736 103.392-3.096L103.392-3.096L103.392-3.096Q96.552-4.608 92.808-10.584L92.808-10.584L92.808-10.584Q88.848-17.352 88.848-25.848L88.848-25.848L88.848-25.848Q89.496-45.288 102.384-52.272L102.384-52.272L102.384-52.272Q104.760-53.640 107.280-53.640L107.280-53.640L107.280-53.640Q109.512-53.640 111.816-52.488L111.816-52.488L111.816-52.488Q119.160-48.816 119.232-39.960L119.232-39.960L119.232-39.960Q119.232-35.928 116.784-32.328L116.784-32.328L116.784-32.328Q114.912-29.880 112.608-29.880L112.608-29.880L112.608-29.880Q111.096-29.880 109.980-31.140L109.980-31.140L109.980-31.140Q108.864-32.400 108.864-33.768L108.864-33.768L108.864-33.768Q108.864-34.848 110.376-37.512L110.376-37.512L110.376-37.512Q111.024-39.096 111.024-40.464L111.024-40.464L111.024-40.464Q111.024-42.768 109.224-44.424L109.224-44.424L109.224-44.424Q108.288-45.360 107.280-45.360L107.280-45.360L107.280-45.360Q106.416-45.360 105.552-44.640L105.552-44.640L105.552-44.640Q103.248-42.840 101.592-40.464L101.592-40.464L101.592-40.464Q97.200-33.480 97.200-25.632L97.200-25.632L97.200-25.632Q97.200-23.040 97.632-20.448L97.632-20.448L97.632-20.448Q99.648-12.528 104.832-11.088L104.832-11.088L104.832-11.088Q105.480-10.872 106.056-10.872L106.056-10.872L106.056-10.872Q108.432-10.872 109.800-16.056L109.800-16.056L109.800-16.056Q110.952-20.160 113.904-20.160L113.904-20.160L114.480-20.088L114.480-20.088Q117.936-19.296 117.936-15.696L117.936-15.696L117.936-15.696Q117.504-10.080 113.760-5.976L113.760-5.976L113.760-5.976Q110.520-2.736 106.344-2.736Z"></path><path d="M132.984 1.152L132.984 1.152L132.984 1.152Q132.264 1.152 131.544 0.864L131.544 0.864L131.544 0.864Q129.024-0.144 128.520-3.672L128.520-3.672L128.520-3.672Q125.208-18.648 124.632-32.832L124.632-32.832L124.632-32.832Q124.344-35.712 124.344-38.520L124.344-38.520L124.344-38.520Q124.344-41.328 124.632-48.816L124.632-48.816L124.632-48.816Q120.024-47.736 119.016-47.736L119.016-47.736L119.016-47.736Q116.280-47.880 115.344-50.472L115.344-50.472L115.344-50.472Q115.128-51.120 115.128-51.768L115.128-51.768L115.128-51.768Q115.128-54.504 118.368-55.656L118.368-55.656L118.368-55.656Q125.280-57.960 132.264-57.960L132.264-57.960L132.264-57.960Q146.520-57.960 153.576-50.760L153.576-50.760L153.576-50.760Q158.544-45.504 158.544-39.024L158.544-39.024L158.544-39.024Q158.472-32.544 153.288-27.504L153.288-27.504L153.288-27.504Q152.280-26.568 145.584-21.240L145.584-21.240L145.584-21.240Q145.728-17.064 148.176-13.104L148.176-13.104L148.176-13.104Q148.752-12.168 149.688-12.168L149.688-12.168L149.688-12.168Q150.048-12.168 150.768-12.384L150.768-12.384L150.768-12.384Q152.424-12.960 153.360-12.960L153.360-12.960L153.360-12.960Q156.024-12.960 157.032-10.440L157.032-10.440L157.032-10.440Q157.320-9.720 157.320-9.000L157.320-9.000L157.320-9.000Q157.320-6.912 155.664-5.832L155.664-5.832L155.664-5.832Q152.712-3.744 149.760-3.744L149.760-3.744L149.760-3.744Q146.736-3.744 143.640-6.048L143.640-6.048L143.640-6.048Q140.760-8.640 139.464-12.240L139.464-12.240L139.464-12.240Q138.600-14.112 137.736-16.920L137.736-16.920L134.640-15.192L136.656-4.536L136.656-4.536Q136.944-3.672 136.944-3.096L136.944-3.096L136.944-3.096Q136.944-1.728 136.224-0.648L136.224-0.648L136.224-0.648Q135 1.152 132.984 1.152ZM133.488-24.048L133.488-24.048L135-24.912L135-24.912Q141.984-28.368 147.600-33.336L147.600-33.336L147.600-33.336Q150.336-36.288 150.336-39.168L150.336-39.168L150.336-39.168Q150.336-42.120 147.600-45.072L147.600-45.072L147.600-45.072Q142.488-49.680 135.432-49.680L135.432-49.680L135.432-49.680Q134.352-49.680 133.128-49.536L133.128-49.536L133.128-49.536Q132.552-43.920 132.552-38.376L132.552-38.376L132.552-38.376Q132.552-31.176 133.488-24.048Z"></path><path d="M180.432 0.576L180.432 0.576L180.432 0.576Q177.984 0.576 175.320 0L175.320 0L175.320 0Q163.944-3.384 161.136-15.048L161.136-15.048L161.136-15.048Q160.344-18.504 160.344-21.888L160.344-21.888L160.344-21.888Q160.344-25.200 161.064-28.512L161.064-28.512L161.064-28.512Q163.080-39.384 170.280-47.592L170.280-47.592L170.280-47.592Q174.600-52.632 178.632-53.568L178.632-53.568L178.632-53.568Q180.288-53.928 181.728-53.928L181.728-53.928L181.728-53.928Q183.816-53.928 185.544-53.136L185.544-53.136L185.544-53.136Q187.632-51.768 187.632-49.752L187.632-49.752L187.632-49.752Q187.632-47.808 186.192-46.512L186.192-46.512L186.192-46.512Q185.184-45.720 183.960-45.720L183.960-45.720L183.960-45.720Q179.568-45.720 177.120-42.768L177.120-42.768L177.120-42.768Q170.712-36.072 169.128-26.928L169.128-26.928L169.128-26.928Q168.552-24.408 168.552-21.888L168.552-21.888L168.552-21.888Q168.552-16.920 170.712-13.176L170.712-13.176L170.712-13.176Q173.448-8.784 176.220-8.172L176.220-8.172L176.220-8.172Q178.992-7.560 180.072-7.560L180.072-7.560L180.072-7.560Q183.384-7.560 186.696-9.648L186.696-9.648L186.696-9.648Q190.512-12.384 192.060-16.632L192.060-16.632L192.060-16.632Q193.608-20.880 193.608-23.688L193.608-23.688L193.608-23.688Q193.608-26.424 192.528-29.160L192.528-29.160L192.528-29.160Q190.944-33.840 186.120-34.632L186.120-34.632L186.120-34.632Q185.400-34.776 184.608-35.136L184.608-35.136L184.608-35.136Q182.016-36.432 181.764-37.692L181.764-37.692L181.764-37.692Q181.512-38.952 181.512-39.312L181.512-39.312L181.512-39.312Q181.512-41.112 183.168-42.840L183.168-42.840L183.168-42.840Q184.392-43.992 185.976-44.640L185.976-44.640L185.976-44.640Q192.240-47.304 198.576-47.304L198.576-47.304L198.576-47.304Q203.184-47.304 207.792-45.936L207.792-45.936L207.792-45.936Q209.016-45.504 209.952-44.568L209.952-44.568L209.952-44.568Q211.104-43.344 211.104-41.976L211.104-41.976L211.104-41.976Q211.104-41.112 210.672-40.248L210.672-40.248L210.672-40.248Q209.736-38.016 207.360-38.016L207.360-38.016L207.360-38.016Q205.272-38.160 203.256-38.520L203.256-38.520L203.256-38.520Q198.072-39.384 195.840-39.384L195.840-39.384L196.776-37.944L196.776-37.944Q201.888-31.464 201.888-23.904L201.888-23.904L201.888-23.904Q201.888-21.024 201.096-17.928L201.096-17.928L201.096-17.928Q199.656-11.304 194.976-6.264L194.976-6.264L194.976-6.264Q188.784 0.576 180.432 0.576Z"></path></g></g><g transform="translate(-263.1606323678237 -137.4753551262503) scale(3.054973771957507)" id="logomark"><g fill="#FFFFFF"><path d="M30.355 73.93l-.003-.002.002.001zM30.352 73.928l-.001-.001-.003-.001z"></path><path d="M74.744 31.124c2.901-1.794 4.851-4.992 4.851-8.657-.001-5.633-4.565-10.199-10.2-10.2-3.296 0-6.212 1.58-8.073 4.005a32.531 32.531 0 0 0-15.65-4.005 32.566 32.566 0 0 0-16.134 4.267c-1.848-2.574-4.854-4.266-8.267-4.267-5.634 0-10.199 4.566-10.2 10.2.001 3.882 2.187 7.23 5.375 8.951.736 2.723 1.174 5.64 1.173 8.508a25.44 25.44 0 0 1-.525 5.254c-.544 2.565-.969 4.97-.969 7.458 0 1.579.173 3.188.593 4.869 1.042 4.191 3.163 7.586 6.075 10.663a29.86 29.86 0 0 0 7.492 5.723l.005.003.062.031a32.59 32.59 0 0 0 15.32 3.807 32.603 32.603 0 0 0 15.305-3.798l.004-.002.008-.004.022-.012.022-.012.021-.012c4.883-2.822 9.534-6.808 11.927-12.22a21.7 21.7 0 0 0 1.877-8.873c0-.564-.021-1.133-.062-1.704-.176-2.316-.994-4.339-1.344-6.274-.202-1.088-.278-2.236-.278-3.397 0-.798.036-1.602.089-2.396.172-2.647.699-5.355 1.481-7.906zM60.066 72.153l-.005.003-.012.006a30.58 30.58 0 0 1-14.379 3.571 30.58 30.58 0 0 1-14.385-3.574l-.003-.001-.053-.027a27.876 27.876 0 0 1-6.983-5.334c-2.745-2.909-4.634-5.956-5.588-9.774a17.874 17.874 0 0 1-.533-4.385c0-2.256.389-4.519.925-7.043.392-1.845.569-3.753.569-5.669 0-3.209-.498-6.44-1.344-9.435l-.123-.435-.408-.195c-2.764-1.323-4.675-4.13-4.674-7.393a8.17 8.17 0 0 1 2.401-5.798 8.17 8.17 0 0 1 5.798-2.402c3.029 0 5.664 1.646 7.088 4.093l.512.881.872-.529a30.58 30.58 0 0 1 15.929-4.445 30.56 30.56 0 0 1 15.442 4.166l.834.485.516-.816c1.457-2.305 4.011-3.835 6.932-3.835a8.17 8.17 0 0 1 5.799 2.402 8.172 8.172 0 0 1 2.401 5.798 8.19 8.19 0 0 1-4.194 7.15l-.344.193-.12.376-.062.196.004-.012-.003.01c-.851 2.736-1.423 5.645-1.611 8.518a38.005 38.005 0 0 0-.093 2.528c.001 1.248.08 2.515.312 3.762.416 2.194 1.188 4.148 1.316 6.053.037.525.057 1.046.057 1.561a19.688 19.688 0 0 1-1.707 8.066c-2.13 4.846-6.426 8.598-11.083 11.284z"></path><path d="M45.333 48.3c.117 0 .226.005.339.007.112-.002.222-.007.339-.007h-.678zM54.338 56.714a1 1 0 0 0-1 1 3.507 3.507 0 0 1-3.502 3.503 3.496 3.496 0 0 1-3.465-3.12h.473c1.937 0 1.898-1.712 2.324-3.11.337-1.107 1.372-1.803 2.475-2.099.534-.143.989-.615.817-1.141-.415-1.274-1.851-3.348-6.788-3.44-4.938.093-6.374 2.166-6.789 3.44-.171.525.285.998.818 1.142 1.103.296 2.137.99 2.474 2.098.408 1.343.409 2.958 2.121 3.086a3.496 3.496 0 0 1-3.466 3.145 3.508 3.508 0 0 1-3.503-3.503 1 1 0 1 0-2 0 5.503 5.503 0 0 0 5.503 5.503 5.494 5.494 0 0 0 4.502-2.346 5.492 5.492 0 0 0 4.503 2.346 5.503 5.503 0 0 0 5.502-5.503.998.998 0 0 0-.999-1.001zm-10.641-6.683c0-.432.884-.781 1.975-.781 1.087 0 1.973.35 1.973.781 0 .431-.886.781-1.973.781-1.09 0-1.975-.35-1.975-.781zM25.036 20.901c.419-.359.58-1.048.247-1.489a5.017 5.017 0 0 0-4.012-2.005 5.06 5.06 0 0 0-5.06 5.06c0 1.784.927 3.345 2.323 4.244.464.299 1.14.085 1.465-.361a31.826 31.826 0 0 1 5.037-5.449zM71.161 26.108c.33.443.988.61 1.418.263a5.005 5.005 0 0 0 1.876-3.905 5.06 5.06 0 0 0-5.061-5.06 5.004 5.004 0 0 0-3.739 1.679c-.369.411-.236 1.077.189 1.428a31.878 31.878 0 0 1 5.317 5.595zM31.835 50.46a10.321 10.321 0 0 0-1.75-.625c.457-.626.734-1.39.734-2.223a3.785 3.785 0 1 0-7.57 0c0 .833.278 1.597.734 2.223-.631.171-1.24.378-1.797.647a1.001 1.001 0 0 0 .871 1.801c1.106-.536 2.483-.862 3.977-.861 1.477-.001 2.84.318 3.94.843a1 1 0 0 0 .861-1.805zm-4.8-5.562c.768 0 1.392.39 1.392.871 0 .48-.624.871-1.392.871-.769 0-1.393-.391-1.393-.871.001-.48.624-.871 1.393-.871zM24.825 41.502l-.026.078.114.1c.41-.025.817-.103 1.193-.105.438-.003.874-.066 1.314-.061.26.003.539-.034.791-.092.436-.1.938-.357 1.009-.839.054-.367-.141-.795-.499-.945-1.03-.434-2.244.391-2.993 1.011a7.628 7.628 0 0 0-.903.853zM63.132 41.423c.253.058.531.095.791.092.44-.005.876.058 1.314.061.376.002.783.08 1.192.105l.114-.1-.026-.078a7.56 7.56 0 0 0-.903-.854c-.749-.62-1.963-1.445-2.993-1.011-.357.15-.553.578-.498.945.07.483.573.74 1.009.84zM69.154 50.482a10.254 10.254 0 0 0-1.797-.647c.457-.625.734-1.39.734-2.223a3.785 3.785 0 1 0-7.569 0c0 .833.277 1.597.734 2.223-.614.165-1.206.366-1.751.625a1 1 0 1 0 .861 1.805c1.1-.524 2.463-.844 3.939-.843 1.494-.001 2.87.325 3.977.861a1.001 1.001 0 0 0 .872-1.801zm-4.847-5.584c.77 0 1.393.39 1.393.871 0 .48-.623.871-1.393.871-.768 0-1.392-.391-1.392-.871s.624-.871 1.392-.871z"></path></g></g></svg>