<svg viewBox="-229.7058823529411 -259.7058823529411 459.4117647058822 359.7058823529411" xmlns="http://www.w3.org/2000/svg" xmlns:xlink="http://www.w3.org/1999/xlink" version="1.1" class="jsx-2263963463 artboard-inner" style="width: 246.497px; height: 193px; max-height: 100%;"><g transform="translate(-240.4901960784313 99.99999999999999) scale(2.7233115468409577)" fill="#232323"><g id="line1"><path d="M11.592 0C12.600 0 13.104-0.504 13.104-1.512L13.104-23.328C13.104-26.976 14.760-28.800 18.072-28.800L20.304-28.800C21.840-28.800 22.932-28.476 23.580-27.828C24.228-27.180 24.552-26.088 24.552-24.552L24.552-1.512C24.552-0.504 25.056 0 26.064 0L32.112 0C33.168 0 33.696-0.504 33.696-1.512L33.696-23.256C33.696-26.952 35.352-28.800 38.664-28.800L40.464-28.800C42.000-28.800 43.080-28.476 43.704-27.828C44.328-27.180 44.640-26.088 44.640-24.552L44.640-1.512C44.640-0.504 45.144 0 46.152 0L52.272 0C53.280 0 53.784-0.504 53.784-1.512L53.784-24.984C53.784-28.776 52.836-31.680 50.940-33.696C49.044-35.712 46.248-36.720 42.552-36.720L40.464-36.720C36.480-36.720 33.672-35.184 32.040-32.112C30.216-35.184 27.216-36.720 23.040-36.720L21.024-36.720C19.248-36.720 17.676-36.360 16.308-35.640C14.940-34.920 13.968-33.984 13.392-32.832L13.104-32.832L13.104-35.208C13.104-36.216 12.600-36.720 11.592-36.720L5.472-36.720C4.464-36.720 3.960-36.216 3.960-35.208L3.960-1.512C3.960-0.504 4.464 0 5.472 0Z"></path><path d="M71.748 0C73.236 0 74.652-0.324 75.996-0.972C77.340-1.620 78.276-2.592 78.804-3.888L79.092-3.888L79.092-1.512C79.092-0.504 79.596 0 80.604 0L86.652 0C87.708 0 88.236-0.504 88.236-1.512L88.236-35.208C88.236-36.216 87.708-36.720 86.652-36.720L70.020-36.720C66.228-36.720 63.300-35.712 61.236-33.696C59.172-31.680 58.140-28.776 58.140-24.984L58.140-11.736C58.140-7.944 59.172-5.040 61.236-3.024C63.300-1.008 66.228 0 70.020 0ZM79.092-13.392C79.092-9.744 77.436-7.920 74.124-7.920L71.460-7.920C69.924-7.920 68.844-8.244 68.220-8.892C67.596-9.540 67.284-10.632 67.284-12.168L67.284-24.552C67.284-26.088 67.596-27.180 68.220-27.828C68.844-28.476 69.924-28.800 71.460-28.800L78.228-28.800C78.804-28.800 79.092-28.536 79.092-28.008Z"></path><path d="M117.000-6.408C117.000-7.416 116.496-7.920 115.488-7.920L106.200-7.920C104.712-7.920 103.644-8.244 102.996-8.892C102.348-9.540 102.024-10.632 102.024-12.168L102.024-24.552C102.024-26.088 102.348-27.180 102.996-27.828C103.644-28.476 104.712-28.800 106.200-28.800L115.488-28.800C116.064-28.800 116.460-28.908 116.676-29.124C116.892-29.340 117.000-29.712 117.000-30.240L117.000-35.208C117.000-36.216 116.496-36.720 115.488-36.720L104.760-36.720C100.968-36.720 98.040-35.712 95.976-33.696C93.912-31.680 92.880-28.776 92.880-24.984L92.880-11.736C92.880-7.944 93.912-5.040 95.976-3.024C98.040-1.008 100.968 0 104.760 0L115.488 0C116.064 0 116.460-0.108 116.676-0.324C116.892-0.540 117.000-0.912 117.000-1.440Z"></path><path d="M128.268 0C129.276 0 129.780-0.504 129.780-1.512L129.780-23.184C129.780-26.928 131.436-28.800 134.748-28.800L139.716-28.800C140.244-28.752 140.616-28.836 140.832-29.052C141.048-29.268 141.156-29.664 141.156-30.240L141.156-35.208C141.156-36.216 140.676-36.720 139.716-36.720L137.124-36.720C135.636-36.720 134.220-36.384 132.876-35.712C131.532-35.040 130.596-34.056 130.068-32.760L129.780-32.760L129.780-35.208C129.780-36.216 129.276-36.720 128.268-36.720L122.148-36.720C121.140-36.720 120.636-36.216 120.636-35.208L120.636-1.512C120.636-0.504 121.140 0 122.148 0Z"></path><path d="M160.776 0C164.520 0 167.436-1.020 169.524-3.060C171.612-5.100 172.656-7.992 172.656-11.736L172.656-24.984C172.656-28.728 171.612-31.620 169.524-33.660C167.436-35.700 164.520-36.720 160.776-36.720L154.368-36.720C150.576-36.720 147.648-35.712 145.584-33.696C143.520-31.680 142.488-28.776 142.488-24.984L142.488-11.736C142.488-7.944 143.520-5.040 145.584-3.024C147.648-1.008 150.576 0 154.368 0ZM155.736-7.848C154.200-7.848 153.120-8.160 152.496-8.784C151.872-9.408 151.560-10.488 151.560-12.024L151.560-24.696C151.560-26.232 151.872-27.312 152.496-27.936C153.120-28.560 154.200-28.872 155.736-28.872L159.408-28.872C160.944-28.872 162.036-28.560 162.684-27.936C163.332-27.312 163.656-26.232 163.656-24.696L163.656-12.024C163.656-10.488 163.332-9.408 162.684-8.784C162.036-8.160 160.944-7.848 159.408-7.848Z"></path></g></g><g transform="translate(-114.85294117647055 -259.7058823529411) scale(0.6898074545133367)" id="logomark"><g fill="#232323"><defs></defs><path d="M0 0h333v333H0z"></path><path d="M167 167V91c-7 0-14 1-20 3-40 10-64 52-53 92 10 41 52 64 92 54 20-6 36-18 46-36l-65-37z"></path></g></g></svg>