<svg viewBox="-139.1056910569106 -148.26705575049368 278.2113821138212 248.26705575049368" xmlns="http://www.w3.org/2000/svg" xmlns:xlink="http://www.w3.org/1999/xlink" version="1.1" class="jsx-2263963463 artboard-inner" style="width: 216.278px; height: 193px; max-height: 100%;"><g transform="translate(-143.1707317073171 100.00000000000001) scale(2.2583559168925023)" fill="#232323"><g id="line1"><path d="M20.952-12.816L33.696-12.816C37.656-13.032 40.536-15.912 40.680-19.800L40.680-37.296C40.608-41.328 37.440-44.280 33.192-44.280L1.800-44.280L1.800 0L20.952 0ZM21.312-35.136L22.968-35.136L22.968-23.400L21.312-23.400Z"></path><path d="M75.024-44.280L54.648-44.280L43.920-32.760L43.920 0L62.568 0L62.568-11.520L64.152-11.520L64.152 0L82.512 0L82.512-37.368C82.368-41.328 79.200-44.280 75.024-44.280ZM64.152-17.064L62.568-17.064L62.568-27.504L64.152-27.504Z"></path><path d="M124.992-7.200L124.992-21.312L106.344-21.312L106.344-11.592L104.760-11.592L104.760-32.904L106.344-32.904L106.344-22.968L124.992-22.968L124.992-37.080C124.992-41.112 121.896-44.208 117.648-44.280L93.528-44.280C89.280-44.208 86.256-41.256 86.112-37.224L86.112-6.984C86.184-3.024 89.280-0.072 93.456 0L117.576 0C121.896-0.072 124.992-3.096 124.992-7.200Z"></path></g></g><g transform="translate(-54.25745094821504 -199.59435514313395) scale(0.27823770465057707)" id="logomark"><g fill="#232323"><path d="M444.8 355.5c-.4-3.6-3.8-6-7.4-5.4l-8.7 1.5-6.7-16.8c-.8-1.9-3.6-1.8-4.1.2l-5.3 19.4c-38.2 6.9-69.1 12-76.9 3.4-6.9-7.6 28-50.4 42.5-97l16.8 7.8c2 .9 4.1-1.1 3.2-3.1l-12.5-27.8c2.4-14.7-2.4-22.3-6.4-37.5-11.2-38.6-51.2 6-51.2 6s-79.8 54.8-85.5 58.3c-42.1-2.4-46-3-130.4 84.6-48.9 15.2-63.9 3.5-77.8 9.3-3.9 1.6 17.2 49.8 62 51.2 0 0-29.9 41.4-111.7 56.3C.9 487.2 25.6 489 25.6 489s-37.6 12.6-78.2 12.7c-2.6 0-3.3 3.6-.9 4.6 7.9 3.1 15.9 5.4 23.3 7.2 13.6 3.4 27.8 3.4 41.7 3.3 13.7-.1 27.3-2 40.5-5.8 26.3-7.5 48.2-21.9 66.4-42.1 8.1-9 16.2-18.5 23.3-28.4 7.5-10.3 13.3-24 5.2-35.6-.1-.1-.1-.1-.1-.2-13.4-19.7-68.4-24.4-67.8-24.9 9.3-8.3 42-13.4 51-13.7 9.8-.3 25.7-.2 35.6-6.1 2.6-4.5 18.2-23.7 22.2-27.3 9.9-9.2 21.4-17.4 34.6-20.8 8.3-2.2 17.1-3 24.9-7 5.6-2.9 10.6-6.9 15.3-11.2-24.1 8.1-38.9-.1-37.2-.6 2.2-.7 16.9-11.3 30.6-9.8 7.3.8 14.8-.8 21-4.7 2.4-1.5 4.5-3.1 6-4.2 8.1-8.3 15.8-16.8 23.6-25.4 12.4-13.8 27.3-24.8 40.1-38.1.5-.6 1.2-.5 1.7-.2.4-.3 1-.5 1.5 0 5.6 4.3 13.2 2.8 19.8 2.7 1.1 0 1.5.9 1.4 1.8 0 .1.1.3.1.4.9 27.2-12.4 51.4-28.1 72.7-7.6 10.4-28.4 42.3-41.6 78.4 8.1 16.3 53.8 20.8 36.2 43.2-4.3 5.5-9.9 9.8-15.6 13.7-27.2 18.7-96.1 99.1 17.1 185 3.3 2.5 7.9-.4 7.1-4.4-17.8-91.6 15.8-161.6 15.8-161.6s9.3-31.9 37.6-43.7c25.6-10.8 47.5-22.9 45.1-43.4z"></path></g></g></svg>