<svg viewBox="-123.3264028329406 -102.00000000000001 430.627576235809 200.00000000000003" xmlns="http://www.w3.org/2000/svg" xmlns:xlink="http://www.w3.org/1999/xlink" version="1.1" class="jsx-2263963463 artboard-inner" style="width: 143px; height: 66.4147px; max-height: 100%;"><g transform="translate(2.086049543676663 23.872229465449806) scale(1.8108068955526586)" fill="#FFFFFF"><g id="line1"><path d="M0.720 0.504C1.968 1.608 3.384 2.160 4.968 2.160C7.032 2.160 9.312 1.140 11.808-0.900C14.304-2.940 16.728-5.664 19.080-9.072C18.696-7.056 18.504-5.496 18.504-4.392C18.504-2.520 18.912-1.008 19.728 0.144C20.544 1.296 21.888 1.872 23.760 1.872C26.496 1.872 29.256 0.624 32.040-1.872C34.824-4.368 37.008-7.584 38.592-11.520L37.224-12.672C35.640-9.408 33.792-6.816 31.680-4.896C29.568-2.976 27.696-2.016 26.064-2.016C25.536-2.016 25.164-2.220 24.948-2.628C24.732-3.036 24.624-3.816 24.624-4.968C24.624-9.288 25.656-14.100 27.720-19.404C29.784-24.708 32.568-30.912 36.072-38.016C37.848-41.616 39.108-44.256 39.852-45.936C40.596-47.616 40.968-48.864 40.968-49.680C40.968-50.304 40.764-50.820 40.356-51.228C39.948-51.636 39.480-51.840 38.952-51.840C37.032-51.840 34.776-49.164 32.184-43.812C29.592-38.460 26.424-30.984 22.680-21.384C21.192-17.544 19.500-14.184 17.604-11.304C15.708-8.424 13.860-6.204 12.060-4.644C10.260-3.084 8.688-2.304 7.344-2.304C6.576-2.304 6.000-2.568 5.616-3.096C5.232-3.624 5.040-4.368 5.040-5.328C5.040-7.248 5.724-9.648 7.092-12.528C8.460-15.408 10.248-17.916 12.456-20.052C14.664-22.188 16.992-23.256 19.440-23.256C20.736-23.256 21.576-22.992 21.960-22.464C22.536-22.800 22.824-23.352 22.824-24.120C22.824-25.656 21.648-26.424 19.296-26.424C16.128-26.424 12.960-25.176 9.792-22.680C6.624-20.184 4.008-17.172 1.944-13.644C-0.120-10.116-1.152-7.008-1.152-4.320C-1.152-2.208-0.528-0.600 0.720 0.504Z"></path><path d="M44.352 0.468C45.456 1.404 46.896 1.872 48.672 1.872C50.736 1.872 52.836 1.248 54.972 0C57.108-1.248 59.040-2.856 60.768-4.824C62.496-6.792 63.840-8.856 64.800-11.016L63.072-12.312C62.400-10.872 61.356-9.324 59.940-7.668C58.524-6.012 56.964-4.608 55.260-3.456C53.556-2.304 51.984-1.728 50.544-1.728C49.344-1.728 48.744-2.280 48.744-3.384C48.744-4.296 49.272-5.808 50.328-7.920C51.048-9.408 51.588-10.680 51.948-11.736C52.308-12.792 52.488-13.848 52.488-14.904C52.488-16.632 52.020-18.012 51.084-19.044C50.148-20.076 48.840-21.144 47.160-22.248C46.248-22.824 45.624-23.268 45.288-23.580C44.952-23.892 44.760-24.216 44.712-24.552L45.180-25.956C45.396-26.604 45.504-27.024 45.504-27.216C45.504-27.600 45.348-28.080 45.036-28.656C44.724-29.232 44.328-29.520 43.848-29.520C43.128-29.520 42.384-28.968 41.616-27.864C40.848-26.760 40.464-25.584 40.464-24.336C40.464-23.520 40.704-22.872 41.184-22.392C39.504-17.640 37.560-13.296 35.352-9.360L36.432-7.272C37.440-8.952 38.580-11.016 39.852-13.464C41.124-15.912 42.240-18.336 43.200-20.736C45.600-19.488 46.800-17.952 46.800-16.128C46.800-15.408 46.632-14.580 46.296-13.644C45.960-12.708 45.480-11.568 44.856-10.224C44.136-8.688 43.596-7.380 43.236-6.300C42.876-5.220 42.696-4.224 42.696-3.312C42.696-1.728 43.248-0.468 44.352 0.468Z"></path><path d="M62.784 0.720C64.464 2.352 66.816 3.168 69.840 3.168C73.680 3.168 77.388 1.848 80.964-0.792C84.540-3.432 87.288-6.912 89.208-11.232L87.768-12.384C85.896-8.832 83.436-5.868 80.388-3.492C77.340-1.116 74.352 0.072 71.424 0.072C69.120 0.072 67.620-0.552 66.924-1.800C66.228-3.048 65.880-4.296 65.880-5.544C65.880-6.168 65.928-6.720 66.024-7.200C68.952-7.536 71.820-8.352 74.628-9.648C77.436-10.944 79.728-12.612 81.504-14.652C83.280-16.692 84.168-18.864 84.168-21.168C84.168-22.896 83.664-24.132 82.656-24.876C81.648-25.620 80.400-25.992 78.912-25.992C76.080-25.992 73.200-24.900 70.272-22.716C67.344-20.532 64.944-17.820 63.072-14.580C61.200-11.340 60.264-8.328 60.264-5.544C60.264-3.000 61.104-0.912 62.784 0.720ZM72.612-11.952C70.476-10.752 68.544-10.056 66.816-9.864C67.488-11.880 68.520-13.896 69.912-15.912C71.304-17.928 72.828-19.596 74.484-20.916C76.140-22.236 77.664-22.896 79.056-22.896C79.488-22.896 79.800-22.800 79.992-22.608C80.184-22.416 80.280-22.056 80.280-21.528C80.280-19.848 79.536-18.132 78.048-16.380C76.560-14.628 74.748-13.152 72.612-11.952Z"></path><path d="M85.860 1.728C86.988 2.832 88.392 3.384 90.072 3.384C91.800 3.384 93.432 2.784 94.968 1.584C96.504 0.384 98.352-1.512 100.512-4.104C100.512-2.472 101.028-1.020 102.060 0.252C103.092 1.524 104.568 2.160 106.488 2.160C109.176 2.160 111.840 0.948 114.480-1.476C117.120-3.900 119.328-7.104 121.104-11.088L119.736-12.456C117.768-8.712 115.740-5.904 113.652-4.032C111.564-2.160 109.848-1.224 108.504-1.224C107.784-1.224 107.244-1.476 106.884-1.980C106.524-2.484 106.344-3.096 106.344-3.816C106.344-4.632 106.560-5.508 106.992-6.444C107.424-7.380 108.024-8.472 108.792-9.720C109.224-10.440 109.608-11.136 109.944-11.808C110.280-12.480 110.448-12.984 110.448-13.320C110.448-14.232 109.584-14.952 107.856-15.480C110.592-15.576 111.960-16.728 111.960-18.936C111.960-20.616 111.252-21.996 109.836-23.076C108.420-24.156 106.656-24.696 104.544-24.696C101.376-24.696 98.208-23.496 95.040-21.096C91.872-18.696 89.268-15.768 87.228-12.312C85.188-8.856 84.168-5.736 84.168-2.952C84.168-0.936 84.732 0.624 85.860 1.728ZM97.452-3.924C95.220-1.500 93.264-0.288 91.584-0.288C91.008-0.288 90.588-0.468 90.324-0.828C90.060-1.188 89.928-1.776 89.928-2.592C89.928-4.800 90.708-7.464 92.268-10.584C93.828-13.704 95.760-16.392 98.064-18.648C100.368-20.904 102.576-22.032 104.688-22.032C106.704-22.032 107.712-20.784 107.712-18.288C107.712-17.280 107.592-16.392 107.352-15.624L107.064-15.696C106.824-15.696 106.632-15.576 106.488-15.336L105.048-13.392C102.216-9.504 99.684-6.348 97.452-3.924Z"></path><path d="M151.560 0.648C152.520 1.704 153.888 2.232 155.664 2.232C158.496 2.232 161.004 0.936 163.188-1.656C165.372-4.248 167.160-7.344 168.552-10.944L167.328-12.456C165.888-9.384 164.340-6.744 162.684-4.536C161.028-2.328 159.336-1.224 157.608-1.224C156.408-1.224 155.808-1.872 155.808-3.168C155.808-3.840 155.964-4.704 156.276-5.760C156.588-6.816 156.768-7.440 156.816-7.632C157.776-10.416 158.256-12.576 158.256-14.112C158.256-15.648 157.860-16.932 157.068-17.964C156.276-18.996 155.016-19.512 153.288-19.512C149.688-19.512 146.208-17.040 142.848-12.096C143.280-13.440 143.592-14.508 143.784-15.300C143.976-16.092 144.072-16.944 144.072-17.856C144.072-19.584 143.724-21.024 143.028-22.176C142.332-23.328 141.168-23.904 139.536-23.904C137.376-23.904 135.072-22.860 132.624-20.772C130.176-18.684 127.800-16.056 125.496-12.888C126.168-15.576 126.504-17.304 126.504-18.072C126.504-18.792 126.276-19.368 125.820-19.800C125.364-20.232 124.776-20.448 124.056-20.448C123.336-20.448 122.532-20.244 121.644-19.836C120.756-19.428 120.240-18.960 120.096-18.432L115.488 0C115.488 0.336 116.076 0.744 117.252 1.224C118.428 1.704 119.448 1.944 120.312 1.944C121.416-1.128 122.976-4.236 124.992-7.380C127.008-10.524 129.048-13.116 131.112-15.156C133.176-17.196 134.856-18.216 136.152-18.216C137.160-18.216 137.664-17.496 137.664-16.056C137.664-14.808 137.364-13.248 136.764-11.376C136.164-9.504 135.384-7.320 134.424-4.824C133.416-2.232 132.912-0.696 132.912-0.216C132.912 0.360 133.416 0.816 134.424 1.152C135.432 1.488 136.368 1.656 137.232 1.656L138.600-0.792C139.752-2.856 140.616-4.320 141.192-5.184C143.544-8.688 145.416-11.208 146.808-12.744C148.200-14.280 149.424-15.048 150.480-15.048C151.584-15.048 152.136-14.328 152.136-12.888C152.136-11.976 151.824-10.536 151.200-8.568C150.912-7.752 150.660-6.876 150.444-5.940C150.228-5.004 150.120-4.152 150.120-3.384C150.120-1.752 150.600-0.408 151.560 0.648Z"></path></g></g><g transform="translate(-181.64028643054255 -114.3887067231901) scale(2.2221907631888964)" id="logomark"><g fill="#FFFFFF"><path d="M26.245 66.187c.31-17.097 15.073-13.52 11.966-24.71-9.123-7.259-10.881-17.875-2.798-24.868-.155-7.304 6.684-11.034 6.684-11.034s4.973 4.974 4.507 9.791c4.353-1.399 11.191 3.109 12.279 4.663C61.215 16.143 69.45 16.3 69.45 16.3s2.643 10.412-4.04 14.143c-.933 9.013-7.735 13.508-12.123 13.833-.672 7.703 11.789 11.638 10.477 25.575 8.264 4.051 11.642 10.33 6.618 16.854-7.719 10.021-27.888 10.721-29.996 6.216-2.202-4.705 1.406-8.968 9.605-7.492 7.5 1.35 24.432-3.936 11.642-11.314-3.28 4.755-7.051 7.215-15.339 7.305-12.645.136-20.236-4.83-20.049-15.233z"></path></g></g></svg>